<svg width="17" height="17" viewBox="0 0 17 17" fill="none" xmlns="http://www.w3.org/2000/svg">
    <path d="M8.49968 6.125C7.86979 6.125 7.2657 6.37522 6.8203 6.82062C6.3749 7.26602 6.12468 7.87011 6.12468 8.5C6.12468 9.12989 6.3749 9.73398 6.8203 10.1794C7.2657 10.6248 7.86979 10.875 8.49968 10.875C9.12956 10.875 9.73366 10.6248 10.1791 10.1794C10.6245 9.73398 10.8747 9.12989 10.8747 8.5C10.8747 7.87011 10.6245 7.26602 10.1791 6.82062C9.73366 6.37522 9.12956 6.125 8.49968 6.125ZM8.49968 4.54167C9.54949 4.54167 10.5563 4.9587 11.2986 5.70103C12.041 6.44337 12.458 7.45018 12.458 8.5C12.458 9.54981 12.041 10.5566 11.2986 11.299C10.5563 12.0413 9.54949 12.4583 8.49968 12.4583C7.44986 12.4583 6.44304 12.0413 5.70071 11.299C4.95838 10.5566 4.54134 9.54981 4.54134 8.5C4.54134 7.45018 4.95838 6.44337 5.70071 5.70103C6.44304 4.9587 7.44986 4.54167 8.49968 4.54167V4.54167ZM13.6455 4.34375C13.6455 4.6062 13.5413 4.85791 13.3557 5.04349C13.1701 5.22907 12.9184 5.33333 12.6559 5.33333C12.3935 5.33333 12.1418 5.22907 11.9562 5.04349C11.7706 4.85791 11.6663 4.6062 11.6663 4.34375C11.6663 4.0813 11.7706 3.82959 11.9562 3.64401C12.1418 3.45843 12.3935 3.35417 12.6559 3.35417C12.9184 3.35417 13.1701 3.45843 13.3557 3.64401C13.5413 3.82959 13.6455 4.0813 13.6455 4.34375V4.34375ZM8.49968 2.16667C6.54109 2.16667 6.22126 2.17221 5.31005 2.21258C4.68938 2.24187 4.27297 2.325 3.88663 2.47542C3.54305 2.60842 3.29526 2.76754 3.03163 3.03196C2.78385 3.27136 2.59333 3.56363 2.4743 3.88696C2.32388 4.27487 2.24076 4.6905 2.21226 5.31037C2.17109 6.18437 2.16634 6.48996 2.16634 8.5C2.16634 10.4586 2.17188 10.7784 2.21226 11.6896C2.24155 12.3095 2.32467 12.7267 2.4743 13.1123C2.60888 13.4566 2.76722 13.7044 3.03005 13.9673C3.29684 14.2333 3.54463 14.3924 3.88505 14.5238C4.27613 14.675 4.69255 14.7589 5.31005 14.7874C6.18405 14.8286 6.48963 14.8333 8.49968 14.8333C10.4583 14.8333 10.7781 14.8278 11.6893 14.7874C12.3084 14.7581 12.7256 14.675 13.1119 14.5254C13.4547 14.3916 13.7041 14.2325 13.9669 13.9696C14.2337 13.7028 14.3928 13.455 14.5243 13.1146C14.6747 12.7243 14.7586 12.3071 14.7871 11.6896C14.8283 10.8156 14.833 10.51 14.833 8.5C14.833 6.54142 14.8275 6.22158 14.7871 5.31037C14.7578 4.69129 14.6747 4.27329 14.5243 3.88696C14.4049 3.56396 14.2148 3.2718 13.9677 3.03196C13.7284 2.78404 13.4361 2.59351 13.1127 2.47462C12.7248 2.32421 12.3084 2.24108 11.6893 2.21258C10.8153 2.17142 10.5097 2.16667 8.49968 2.16667ZM8.49968 0.583332C10.6506 0.583332 10.919 0.591249 11.7629 0.630832C12.6061 0.670415 13.18 0.802624 13.6851 0.998957C14.2076 1.20004 14.6478 1.47237 15.0879 1.91175C15.4905 2.3075 15.802 2.78622 16.0007 3.31458C16.1963 3.81887 16.3293 4.39362 16.3688 5.23675C16.4061 6.08067 16.4163 6.34904 16.4163 8.5C16.4163 10.651 16.4084 10.9193 16.3688 11.7632C16.3293 12.6064 16.1963 13.1803 16.0007 13.6854C15.8025 14.2141 15.491 14.6929 15.0879 15.0883C14.6921 15.4907 14.2134 15.8021 13.6851 16.001C13.1808 16.1966 12.6061 16.3296 11.7629 16.3692C10.919 16.4064 10.6506 16.4167 8.49968 16.4167C6.34872 16.4167 6.08034 16.4088 5.23642 16.3692C4.3933 16.3296 3.81934 16.1966 3.31426 16.001C2.78568 15.8027 2.30688 15.4912 1.91142 15.0883C1.50879 14.6926 1.19729 14.2138 0.998633 13.6854C0.8023 13.1811 0.670091 12.6064 0.630508 11.7632C0.593299 10.9193 0.583008 10.651 0.583008 8.5C0.583008 6.34904 0.590924 6.08067 0.630508 5.23675C0.670091 4.39283 0.8023 3.81967 0.998633 3.31458C1.19674 2.78589 1.50831 2.30704 1.91142 1.91175C2.307 1.50897 2.78576 1.19745 3.31426 0.998957C3.81934 0.802624 4.39251 0.670415 5.23642 0.630832C6.08034 0.593624 6.34872 0.583332 8.49968 0.583332Z" fill="#E0BEA2"/>
</svg>