<svg width="17" height="17" viewBox="0 0 17 17" fill="none" xmlns="http://www.w3.org/2000/svg">
    <path d="M8.49968 14.8333C10.1794 14.8333 11.7903 14.1661 12.978 12.9783C14.1657 11.7906 14.833 10.1797 14.833 8.5C14.833 6.82029 14.1657 5.20939 12.978 4.02166C11.7903 2.83393 10.1794 2.16667 8.49968 2.16667C6.81997 2.16667 5.20906 2.83393 4.02133 4.02166C2.8336 5.20939 2.16634 6.82029 2.16634 8.5C2.16634 10.1797 2.8336 11.7906 4.02133 12.9783C5.20906 14.1661 6.81997 14.8333 8.49968 14.8333ZM8.49968 16.4167C4.1273 16.4167 0.583008 12.8724 0.583008 8.5C0.583008 4.12762 4.1273 0.583332 8.49968 0.583332C12.8721 0.583332 16.4163 4.12762 16.4163 8.5C16.4163 12.8724 12.8721 16.4167 8.49968 16.4167ZM6.03759 9.42625L4.06001 8.80954C3.63251 8.67892 3.63013 8.38442 4.1558 8.17304L11.8611 5.19637C12.3084 5.01429 12.5617 5.24467 12.4168 5.82179L11.1051 12.0126C11.0132 12.4536 10.748 12.5589 10.3799 12.3554L8.36034 10.8608L7.41905 11.7696C7.32247 11.863 7.24409 11.943 7.09526 11.9628C6.94722 11.9833 6.8253 11.939 6.73584 11.6936L6.04709 9.42071L6.03759 9.42625Z" fill="#E0BEA2"/>
</svg>